<svg xmlns="http://www.w3.org/2000/svg" style="overflow: hidden; display: block; width: 1208px; height: 630px;" width="1208px" height="630px" viewBox="0 0 1208 630" xmlns:xlink="http://www.w3.org/1999/xlink"><defs/><g style="pointer-events:visiblePainted" transform="translate(3.899999065227341 0)" image-rendering="auto" shape-rendering="auto"><g><path fill="none" stroke="rgb(169,169,169)" d="M 22.5,240 L 22.5,390" stroke-opacity="1" stroke-width="1" stroke-linecap="butt" stroke-linejoin="miter" stroke-miterlimit="10"/></g><g><path fill="none" stroke="rgb(169,169,169)" d="M 167.08333333333334,340 L 167.08333333333334,350 L 47.5,350 L 47.5,390" stroke-opacity="1" stroke-width="1" stroke-linecap="butt" stroke-linejoin="miter" stroke-miterlimit="10"/></g><g><path fill="none" stroke="rgb(169,169,169)" d="M 207.08333333333334,340 L 207.08333333333334,350 L 330.8333333333333,350 L 330.8333333333333,390" stroke-opacity="1" stroke-width="1" stroke-linecap="butt" stroke-linejoin="miter" stroke-miterlimit="10"/></g><g><path fill="none" stroke="rgb(169,169,169)" d="M 205.83333333333334,540 L 205.83333333333334,550 L 300.8333333333333,550 L 300.8333333333333,570" stroke-opacity="1" stroke-width="1" stroke-linecap="butt" stroke-linejoin="miter" stroke-miterlimit="10"/></g><g><path fill="none" stroke="rgb(169,169,169)" d="M 180.83333333333334,540 L 180.83333333333334,550 L 163.33333333333334,550 L 163.33333333333334,570" stroke-opacity="1" stroke-width="1" stroke-linecap="butt" stroke-linejoin="miter" stroke-miterlimit="10"/></g><g><path fill="none" stroke="rgb(169,169,169)" d="M 193.33333333333334,450 L 193.33333333333334,480" stroke-opacity="1" stroke-width="1" stroke-linecap="butt" stroke-linejoin="miter" stroke-miterlimit="10"/></g><g><path fill="none" stroke="rgb(169,169,169)" d="M 187.08333333333334,390 L 187.08333333333334,340" stroke-opacity="1" stroke-width="1" stroke-linecap="butt" stroke-linejoin="miter" stroke-miterlimit="10"/></g><g><path fill="none" stroke="rgb(169,169,169)" d="M 197.08333333333334,340 L 197.08333333333334,360 L 199.58333333333334,360 L 199.58333333333334,390" stroke-opacity="1" stroke-width="1" stroke-linecap="butt" stroke-linejoin="miter" stroke-miterlimit="10"/></g><g><path fill="none" stroke="rgb(169,169,169)" d="M 177.08333333333334,340 L 177.08333333333334,360 L 138.33333333333334,360 L 138.33333333333334,570" stroke-opacity="1" stroke-width="1" stroke-linecap="butt" stroke-linejoin="miter" stroke-miterlimit="10"/></g><g><path fill="none" stroke="rgb(169,169,169)" d="M 55.83333333333333,240 L 55.83333333333333,250 L 174.58333333333334,250 L 174.58333333333334,280" stroke-opacity="1" stroke-width="1" stroke-linecap="butt" stroke-linejoin="miter" stroke-miterlimit="10"/></g><g><path fill="none" stroke="rgb(169,169,169)" d="M 39.166666666666664,240 L 39.166666666666664,370 L 174.58333333333334,370 L 174.58333333333334,390" stroke-opacity="1" stroke-width="1" stroke-linecap="butt" stroke-linejoin="miter" stroke-miterlimit="10"/></g><g><path fill="none" stroke="rgb(169,169,169)" d="M 172.5,150 L 172.5,160 L 39.166666666666664,160 L 39.166666666666664,180" stroke-opacity="1" stroke-width="1" stroke-linecap="butt" stroke-linejoin="miter" stroke-miterlimit="10"/></g><g><path fill="none" stroke="rgb(169,169,169)" d="M 355.83333333333337,240 L 355.8333333333333,390" stroke-opacity="1" stroke-width="1" stroke-linecap="butt" stroke-linejoin="miter" stroke-miterlimit="10"/></g><g><path fill="none" stroke="rgb(169,169,169)" d="M 322.5,240 L 322.5,250 L 199.58333333333334,250 L 199.58333333333334,280" stroke-opacity="1" stroke-width="1" stroke-linecap="butt" stroke-linejoin="miter" stroke-miterlimit="10"/></g><g><path fill="none" stroke="rgb(169,169,169)" d="M 339.1666666666667,240 L 339.1666666666667,360 L 212.08333333333334,360 L 212.08333333333334,390" stroke-opacity="1" stroke-width="1" stroke-linecap="butt" stroke-linejoin="miter" stroke-miterlimit="10"/></g><g><path fill="none" stroke="rgb(169,169,169)" d="M 205.83333333333331,150 L 205.83333333333331,160 L 339.1666666666667,160 L 339.1666666666667,180" stroke-opacity="1" stroke-width="1" stroke-linecap="butt" stroke-linejoin="miter" stroke-miterlimit="10"/></g><g><path fill="none" stroke="rgb(169,169,169)" d="M 189.16666666666666,150 L 189.16666666666666,180" stroke-opacity="1" stroke-width="1" stroke-linecap="butt" stroke-linejoin="miter" stroke-miterlimit="10"/></g><g><path fill="none" stroke="rgb(169,169,169)" d="M 537.9166666666667,60 L 537.9166666666667,70 L 189.16666666666666,70 L 189.16666666666666,90" stroke-opacity="1" stroke-width="1" stroke-linecap="butt" stroke-linejoin="miter" stroke-miterlimit="10"/></g><g><path fill="none" stroke="rgb(169,169,169)" d="M 554.5833333333334,150 L 554.5833333333334,180" stroke-opacity="1" stroke-width="1" stroke-linecap="butt" stroke-linejoin="miter" stroke-miterlimit="10"/></g><g><path fill="none" stroke="rgb(169,169,169)" d="M 554.5833333333334,60 L 554.5833333333334,90" stroke-opacity="1" stroke-width="1" stroke-linecap="butt" stroke-linejoin="miter" stroke-miterlimit="10"/></g><g><path fill="none" stroke="rgb(169,169,169)" d="M 685.8333333333334,240 L 685.8333333333334,250 L 410.8333333333333,250 L 410.8333333333333,280" stroke-opacity="1" stroke-width="1" stroke-linecap="butt" stroke-linejoin="miter" stroke-miterlimit="10"/></g><g><path fill="none" stroke="rgb(169,169,169)" d="M 848.3333333333334,450 L 848.3333333333334,460 L 723.3333333333334,460 L 723.3333333333334,480" stroke-opacity="1" stroke-width="1" stroke-linecap="butt" stroke-linejoin="miter" stroke-miterlimit="10"/></g><g><path fill="none" stroke="rgb(169,169,169)" d="M 873.3333333333334,450 L 873.3333333333334,480" stroke-opacity="1" stroke-width="1" stroke-linecap="butt" stroke-linejoin="miter" stroke-miterlimit="10"/></g><g><path fill="none" stroke="rgb(169,169,169)" d="M 860.8333333333334,340 L 860.8333333333334,390" stroke-opacity="1" stroke-width="1" stroke-linecap="butt" stroke-linejoin="miter" stroke-miterlimit="10"/></g><g><path fill="none" stroke="rgb(169,169,169)" d="M 723.3333333333334,240 L 723.3333333333334,250 L 848.3333333333334,250 L 848.3333333333334,280" stroke-opacity="1" stroke-width="1" stroke-linecap="butt" stroke-linejoin="miter" stroke-miterlimit="10"/></g><g><path fill="none" stroke="rgb(169,169,169)" d="M 698.3333333333334,240 L 698.3333333333334,260 L 560.8333333333334,260 L 560.8333333333334,280" stroke-opacity="1" stroke-width="1" stroke-linecap="butt" stroke-linejoin="miter" stroke-miterlimit="10"/></g><g><path fill="none" stroke="rgb(169,169,169)" d="M 710.8333333333334,240 L 710.8333333333334,280" stroke-opacity="1" stroke-width="1" stroke-linecap="butt" stroke-linejoin="miter" stroke-miterlimit="10"/></g><g><path fill="none" stroke="rgb(169,169,169)" d="M 873.3333333333334,150 L 873.3333333333334,160 L 704.5833333333334,160 L 704.5833333333334,180" stroke-opacity="1" stroke-width="1" stroke-linecap="butt" stroke-linejoin="miter" stroke-miterlimit="10"/></g><g><path fill="none" stroke="rgb(169,169,169)" d="M 890,240 L 890,260 L 1010.8333333333334,260 L 1010.8333333333334,280" stroke-opacity="1" stroke-width="1" stroke-linecap="butt" stroke-linejoin="miter" stroke-miterlimit="10"/></g><g><path fill="none" stroke="rgb(169,169,169)" d="M 873.3333333333334,240 L 873.3333333333334,280" stroke-opacity="1" stroke-width="1" stroke-linecap="butt" stroke-linejoin="miter" stroke-miterlimit="10"/></g><g><path fill="none" stroke="rgb(169,169,169)" d="M 906.6666666666666,240 L 906.6666666666666,250 L 1160.8333333333333,250 L 1160.8333333333333,280" stroke-opacity="1" stroke-width="1" stroke-linecap="butt" stroke-linejoin="miter" stroke-miterlimit="10"/></g><g><path fill="none" stroke="rgb(169,169,169)" d="M 890,150 L 890,180" stroke-opacity="1" stroke-width="1" stroke-linecap="butt" stroke-linejoin="miter" stroke-miterlimit="10"/></g><g><path fill="none" stroke="rgb(169,169,169)" d="M 906.6666666666666,150 L 906.6666666666666,160 L 1040,160 L 1040,180" stroke-opacity="1" stroke-width="1" stroke-linecap="butt" stroke-linejoin="miter" stroke-miterlimit="10"/></g><g><path fill="none" stroke="rgb(169,169,169)" d="M 571.25,60 L 571.25,70 L 890,70 L 890,90" stroke-opacity="1" stroke-width="1" stroke-linecap="butt" stroke-linejoin="miter" stroke-miterlimit="10"/></g><g transform="translate(529.5833333333334 0)"><g transform="scale(2.78)">
            <svg svgBox="0 0 18 18" fill="msportalfx-svg-placeholder" role="presentation" focusable="false"><g><title/><defs><linearGradient id="ygc3_0" x1="9.88" y1="8.59" x2="11.52" y2="10.23" gradientTransform="rotate(-.08 -285.464 -1454.08)" gradientUnits="userSpaceOnUse"><stop offset="0" stop-color="#86d633"/><stop offset=".24" stop-color="#83d232"/><stop offset=".5" stop-color="#7cc52f"/><stop offset=".76" stop-color="#6fb02a"/><stop offset="1" stop-color="#5e9624"/></linearGradient><linearGradient id="ygc3_1" x1="6.18" y1="8.59" x2="7.81" y2="10.23"/><linearGradient id="ygc3_2" x1="2.48" y1="8.59" x2="4.11" y2="10.23"/></defs><title>Icon-networking-61</title><circle cx="12.74" cy="8.99" r="1.16" fill="url(#ygc3_0)"/><circle cx="9.04" cy="9" r="1.16" fill="url(#ygc3_1)"/><circle cx="5.34" cy="9" r="1.16" fill="url(#ygc3_2)"/><path d="m6.182 13.638-.664.665a.3.3 0 0 1-.424 0L.18 9.404a.6.6 0 0 1-.001-.848l.663-.666 5.34 5.324a.3.3 0 0 1 0 .425Z" fill="#50e6ff"/><path d="m5.418 3.708.666.664a.3.3 0 0 1 0 .424L.838 10.057l-.666-.663a.6.6 0 0 1-.001-.849L4.994 3.71a.3.3 0 0 1 .424 0Z" fill="#1490df"/><path d="m17.157 7.88.663.666a.6.6 0 0 1 0 .848l-4.915 4.9a.3.3 0 0 1-.424 0l-.664-.666a.3.3 0 0 1 0-.424l5.34-5.324Z" fill="#50e6ff"/><path d="m17.818 9.387-.665.664-5.247-5.261a.3.3 0 0 1 0-.425l.674-.67a.3.3 0 0 1 .424 0l4.823 4.836a.6.6 0 0 1-.002.849Z" fill="#1490df"/></g></svg>
        </g></g><g transform="translate(164.16666666666666 90)"><g transform="scale(2.78)">
            <svg svgBox="0 0 18 18" fill="msportalfx-svg-placeholder" role="presentation" focusable="false"><g><title/><defs><linearGradient id="ygc3_3" x1="9.033" y1="10.305" x2="9.033" y2="7.695" gradientUnits="userSpaceOnUse"><stop offset="0" stop-color="#5e9624"/><stop offset=".241" stop-color="#6fb02a"/><stop offset=".501" stop-color="#7cc52f"/><stop offset=".756" stop-color="#83d232"/><stop offset="1" stop-color="#86d633"/></linearGradient></defs><path d="M9.031 7.7A1.305 1.305 0 1 0 10.338 9a1.305 1.305 0 0 0-1.307-1.3Z" fill="url(#ygc3_3)"/><path d="m6.34 13.375-.626.629a.284.284 0 0 1-.402 0L.673 9.38a.568.568 0 0 1 0-.804l.626-.629 5.04 5.027a.284.284 0 0 1 .002.402Z" fill="#50e6ff"/><path d="m5.62 3.996.627.626a.284.284 0 0 1 0 .402L1.295 9.99l-.626-.624a.568.568 0 0 1 0-.803L5.22 3.999a.284.284 0 0 1 .401 0Z" fill="#1490df"/><path d="m16.702 7.947.627.629a.568.568 0 0 1-.001.803l-4.639 4.626a.284.284 0 0 1-.402 0l-.627-.63a.284.284 0 0 1 .001-.401l5.041-5.027Z" fill="#50e6ff"/><path d="m17.333 9.364-.629.627-4.953-4.967a.284.284 0 0 1 0-.402l.628-.626a.284.284 0 0 1 .402 0l4.552 4.566a.568.568 0 0 1 0 .803Z" fill="#1490df"/></g></svg>
        </g></g><g transform="translate(14.166666666666664 180)"><g transform="scale(2.78)">
            <svg svgBox="0 0 18 18" fill="msportalfx-svg-placeholder" role="presentation" focusable="false"><g><title/><defs><linearGradient id="ygc3_4" x1="9.01" y1="16.5" x2="9.01" y2="1.5" gradientUnits="userSpaceOnUse"><stop offset="0" stop-color="#5e9641"/><stop offset=".34" stop-color="#6baa42"/><stop offset=".67" stop-color="#73b743"/><stop offset="1" stop-color="#76bb43"/></linearGradient></defs><title>Icon-networking-80</title><path d="M15.89 2.91h1.27a.34.34 0 0 1 .34.34v3.5a.34.34 0 0 1-.34.34h-1.27V2.91Zm0 6.09h1.27a.34.34 0 0 1 .34.34v5.86a.34.34 0 0 1-.34.34h-1.27V9Z" fill="#ffca00"/><rect x="2.13" y="1.5" width="13.76" height="15" rx=".69" fill="url(#ygc3_4)"/><path d="M5.9 12.9h-.71a.2.2 0 0 1-.19-.21V4.34a.19.19 0 0 1 .19-.2h1.93a.19.19 0 0 1 .19.2.2.2 0 0 1-.19.21H5.38v7.93h.52a.2.2 0 0 1 .19.21.21.21 0 0 1-.19.21Z" fill="#b4ec36"/><path d="M6 13.92H4.4a.2.2 0 0 1-.19-.21L4.08 3.38a.2.2 0 0 1 .06-.15.16.16 0 0 1 .13-.06h2.85v.41H4.47l.12 9.92H6Zm6-.92h-1.59a.19.19 0 0 1-.14-.07.18.18 0 0 1-.06-.14V7.9a.19.19 0 0 1 .19-.2h.91V5.45h.38v2.44a.2.2 0 0 1-.18.21h-.91v4.42H12Z" fill="#b4ec36"/><rect x="7.07" y="2.29" width="6.14" height="3.11" rx=".26" fill="#365615"/><rect x="5.86" y="12.69" width="4.9" height="1.09" rx=".26" transform="rotate(90 8.305 13.235)" fill="#365615"/><rect x="3.99" y="12.71" width="4.9" height="1.09" rx=".26" transform="rotate(90 6.44 13.26)" fill="#365615"/><rect x="9.98" y="12.71" width="4.9" height="1.09" rx=".26" transform="rotate(90 12.425 13.255)" fill="#f2f2f2"/><ellipse cx="8.11" cy="8.06" rx="1.04" ry="1.12" fill="#f2f2f2"/><path d="M2.11 12.25H.84a.34.34 0 0 1-.34-.3V6.09a.34.34 0 0 1 .34-.34h1.27v6.5Z" fill="#3b3b3b"/></g></svg>
        </g></g><g transform="translate(10 390)"><g transform="scale(2.78)">
            <svg svgBox="0 0 18 18" fill="msportalfx-svg-placeholder" role="presentation" focusable="false"><g><title/><defs><linearGradient id="ygc3_5" x1="8.88" y1="12.21" x2="8.88" y2=".21" gradientUnits="userSpaceOnUse"><stop offset="0" stop-color="#0078d4"/><stop offset=".82" stop-color="#5ea0ef"/></linearGradient><linearGradient id="ygc3_6" x1="8.88" y1="16.84" x2="8.88" y2="12.21" gradientUnits="userSpaceOnUse"><stop offset=".15" stop-color="#ccc"/><stop offset="1" stop-color="#707070"/></linearGradient></defs><title>Icon-compute-21</title><rect x="-.12" y=".21" width="18" height="12" rx=".6" fill="url(#ygc3_5)"/><path fill="#50e6ff" d="M11.88 4.46v3.49l-3 1.76v-3.5l3-1.75z"/><path fill="#c3f1ff" d="m11.88 4.46-3 1.76-3-1.76 3-1.75 3 1.75z"/><path fill="#9cebff" d="M8.88 6.22v3.49l-3-1.76V4.46l3 1.76z"/><path fill="#c3f1ff" d="m5.88 7.95 3-1.74v3.5l-3-1.76z"/><path fill="#9cebff" d="m11.88 7.95-3-1.74v3.5l3-1.76z"/><path d="M12.49 15.84c-1.78-.28-1.85-1.56-1.85-3.63H7.11c0 2.07-.06 3.35-1.84 3.63a1 1 0 0 0-.89 1h9a1 1 0 0 0-.89-1Z" fill="url(#ygc3_6)"/></g></svg>
        </g></g><g transform="translate(162.08333333333334 280)"><g transform="scale(2.78)">
            <svg svgBox="0 0 18 18" fill="msportalfx-svg-placeholder" role="presentation" focusable="false"><g><title/><defs><linearGradient id="ygc3_7" x1="12.74" y1="15.28" x2="12.74" y2="8.52" gradientUnits="userSpaceOnUse"><stop offset="0" stop-color="#0078d4"/><stop offset=".82" stop-color="#5ea0ef"/></linearGradient><linearGradient id="ygc3_8" x1="12.74" y1="17.89" x2="12.74" y2="15.28" gradientUnits="userSpaceOnUse"><stop offset=".15" stop-color="#ccc"/><stop offset="1" stop-color="#707070"/></linearGradient></defs><title>Icon-compute-34</title><rect x=".79" y=".89" width="10.11" height="6.75" rx=".34" fill="#005ba1"/><path fill="#50e6ff" d="M7.53 3.28v1.97l-1.68.98V4.27l1.68-.99z"/><path fill="#c3f1ff" d="m7.53 3.28-1.68.99-1.69-.99 1.69-.99 1.68.99z"/><path fill="#9cebff" d="M5.85 4.27v1.96l-1.69-.98V3.28l1.69.99z"/><rect x="4.76" y="4.76" width="10.11" height="6.75" rx=".34" fill="#0078d4"/><path fill="#50e6ff" d="M11.5 7.16v1.96l-1.68.99V8.14l1.68-.98z"/><path fill="#c3f1ff" d="m11.5 7.16-1.68.98-1.69-.98 1.69-.99 1.68.99z"/><path fill="#9cebff" d="M9.82 8.14v1.97l-1.69-.99V7.16l1.69.98z"/><rect x="7.68" y="8.52" width="10.11" height="6.75" rx=".34" fill="url(#ygc3_7)"/><path fill="#50e6ff" d="M14.42 10.92v1.96l-1.68.99V11.9l1.68-.98z"/><path fill="#c3f1ff" d="m14.42 10.92-1.68.99-1.69-.99 1.69-.99 1.68.99z"/><path fill="#9cebff" d="M12.74 11.91v1.96l-1.69-.99v-1.96l1.69.99z"/><path fill="#c3f1ff" d="m11.05 12.88 1.69-.98v1.97l-1.69-.99z"/><path fill="#9cebff" d="m14.42 12.88-1.68-.98v1.97l1.68-.99z"/><path d="M14.76 17.32c-1-.16-1-.88-1-2h-2c0 1.16 0 1.88-1 2a.59.59 0 0 0-.5.57h5a.59.59 0 0 0-.5-.57Z" fill="url(#ygc3_8)"/></g></svg>
        </g></g><g transform="translate(318.3333333333333 390)"><g transform="scale(2.78)">
            <svg svgBox="0 0 18 18" fill="msportalfx-svg-placeholder" role="presentation" focusable="false"><g><title/><defs><linearGradient id="ygc3_9" x1="8.88" y1="12.21" x2="8.88" y2=".21" gradientUnits="userSpaceOnUse"><stop offset="0" stop-color="#0078d4"/><stop offset=".82" stop-color="#5ea0ef"/></linearGradient><linearGradient id="ygc3_10" x1="8.88" y1="16.84" x2="8.88" y2="12.21" gradientUnits="userSpaceOnUse"><stop offset=".15" stop-color="#ccc"/><stop offset="1" stop-color="#707070"/></linearGradient></defs><title>Icon-compute-21</title><rect x="-.12" y=".21" width="18" height="12" rx=".6" fill="url(#ygc3_9)"/><path fill="#50e6ff" d="M11.88 4.46v3.49l-3 1.76v-3.5l3-1.75z"/><path fill="#c3f1ff" d="m11.88 4.46-3 1.76-3-1.76 3-1.75 3 1.75z"/><path fill="#9cebff" d="M8.88 6.22v3.49l-3-1.76V4.46l3 1.76z"/><path fill="#c3f1ff" d="m5.88 7.95 3-1.74v3.5l-3-1.76z"/><path fill="#9cebff" d="m11.88 7.95-3-1.74v3.5l3-1.76z"/><path d="M12.49 15.84c-1.78-.28-1.85-1.56-1.85-3.63H7.11c0 2.07-.06 3.35-1.84 3.63a1 1 0 0 0-.89 1h9a1 1 0 0 0-.89-1Z" fill="url(#ygc3_10)"/></g></svg>
        </g></g><g transform="translate(168.33333333333334 390)"><g transform="scale(2.78)">
            <svg svgBox="0 0 18 18" fill="msportalfx-svg-placeholder" role="presentation" focusable="false"><g><title/><defs><linearGradient id="ygc3_11" x1="10.31" y1="12.7" x2="10.31" y2="6.83" gradientUnits="userSpaceOnUse"><stop offset="0" stop-color="#0078d4"/><stop offset=".82" stop-color="#5ea0ef"/></linearGradient><linearGradient id="ygc3_12" x1="10.31" y1="14.97" x2="10.31" y2="12.7" gradientUnits="userSpaceOnUse"><stop offset=".15" stop-color="#ccc"/><stop offset="1" stop-color="#707070"/></linearGradient></defs><title>Icon-compute-25</title><path fill="#0078d4" d="M2.12.5h1.97v.57H2.12zm14.51.57h.32v.31h.55V.5h-.87v.57zM1.41 16.89h-.28v-.32H.5v.93h.91v-.61zm15.54-.29v.29h-.32v.61h.87v-.9h-.55zM1.13 1.36v-.29h.28V.5H.5v.86h.63z"/><rect x="3.37" y="3.55" width="8.79" height="5.88" rx=".29" fill="#0078d4"/><path fill="#50e6ff" d="M9.23 5.64v1.71l-1.46.86V6.49l1.46-.85z"/><path fill="#c3f1ff" d="m9.23 5.64-1.46.86-1.47-.86 1.47-.86 1.46.86z"/><path fill="#9cebff" d="M7.77 6.5v1.71L6.3 7.35V5.64l1.47.86z"/><rect x="5.91" y="6.83" width="8.79" height="5.88" rx=".29" fill="url(#ygc3_11)"/><path fill="#50e6ff" d="M11.77 8.91v1.71l-1.46.86V9.77l1.46-.86z"/><path fill="#c3f1ff" d="m11.77 8.91-1.46.86-1.47-.86 1.47-.86 1.46.86z"/><path fill="#9cebff" d="M10.31 9.77v1.71l-1.47-.86V8.91l1.47.86z"/><path fill="#c3f1ff" d="m8.84 10.62 1.47-.85v1.71l-1.47-.86z"/><path fill="#9cebff" d="m11.77 10.62-1.46-.85v1.71l1.46-.86z"/><path d="M12.07 14.48c-.87-.14-.9-.77-.9-1.78H9.44c0 1 0 1.64-.9 1.78a.51.51 0 0 0-.43.49h4.4a.51.51 0 0 0-.44-.49Z" fill="url(#ygc3_12)"/><path fill="#0078d4" d="M5.07.5h1.97v.57H5.07zm2.94 0h1.97v.57H8.01zm2.95 0h1.97v.57h-1.97zm2.95 0h1.97v.57h-1.97zM2.14 16.89h1.97v.57H2.14zm2.94 0h1.97v.57H5.08zm2.95 0H10v.57H8.03zm2.95 0h1.97v.57h-1.97zm2.94 0h1.97v.57h-1.97zm3.01-14.84h.57v1.97h-.57zm0 2.94h.57v1.97h-.57zm0 2.95h.57v1.97h-.57zm0 2.94h.57v1.97h-.57zm0 2.95h.57v1.97h-.57zM.5 2.03h.57V4H.5zm0 2.95h.57v1.97H.5zm0 2.94h.57v1.97H.5zm0 2.95h.57v1.97H.5zm0 2.94h.57v1.97H.5z"/></g></svg>
        </g></g><g transform="translate(168.33333333333334 480)"><g transform="scale(2.78)">
            <svg svgBox="0 0 18 18" fill="msportalfx-svg-placeholder" role="presentation" focusable="false"><g><title/><defs><linearGradient id="ygc3_13" x1="9" y1="19.85" x2="9" y2="-1.02" gradientUnits="userSpaceOnUse"><stop offset="0" stop-color="#5e9624"/><stop offset=".02" stop-color="#5f9724"/><stop offset="1" stop-color="#76bc2d"/></linearGradient></defs><title>Icon-networking-62</title><path d="M.18 8.57 8.57.18a.6.6 0 0 1 .86 0l8.39 8.39a.6.6 0 0 1 0 .86l-8.4 8.4a.6.6 0 0 1-.84 0l-8.4-8.4a.6.6 0 0 1 0-.86Z" fill="url(#ygc3_13)"/><path d="M11.2 4 9.08 1.89a.12.12 0 0 0-.16 0L6.8 4a.1.1 0 0 0 .08.18h1.24a.11.11 0 0 1 .11.11v2a.11.11 0 0 0 .11.11h1.32a.11.11 0 0 0 .11-.11v-2a.11.11 0 0 1 .11-.11h1.24A.1.1 0 0 0 11.2 4ZM4 6.61 1.9 8.74a.11.11 0 0 0 0 .15L4 11a.11.11 0 0 0 .19-.08V9.69a.11.11 0 0 1 .11-.11h2a.1.1 0 0 0 .1-.11V8.15A.1.1 0 0 0 6.33 8h-2a.1.1 0 0 1-.11-.1V6.69A.11.11 0 0 0 4 6.61ZM14.08 11l2.13-2.12a.11.11 0 0 0 0-.15l-2.13-2.12a.11.11 0 0 0-.18.08v1.25a.1.1 0 0 1-.11.1h-2a.1.1 0 0 0-.1.11v1.32a.1.1 0 0 0 .1.11h2a.11.11 0 0 1 .11.11v1.24a.11.11 0 0 0 .18.07Z" fill="#b4ec36"/><path d="M11.79 9a2.79 2.79 0 1 0-3.54 2.67v.95a1.71 1.71 0 1 0 1.57 0v-1A2.77 2.77 0 0 0 11.79 9Z" fill="#fff"/><circle cx="9.01" cy="8.99" r="1.62" fill="#5ea0ef"/></g></svg>
        </g></g><g transform="translate(275.8333333333333 570)"><g transform="scale(2.78)">
            <svg svgBox="0 0 18 18" fill="msportalfx-svg-placeholder" role="presentation" focusable="false"><g><title/><defs><linearGradient id="ygc3_14" x1="9" y1="15.83" x2="9" y2="5.79" gradientUnits="userSpaceOnUse"><stop offset="0" stop-color="#32bedd"/><stop offset=".18" stop-color="#32caea"/><stop offset=".41" stop-color="#32d2f2"/><stop offset=".78" stop-color="#32d4f5"/></linearGradient></defs><title>Icon-networking-69</title><path d="M.5 5.79h17v9.48a.57.57 0 0 1-.57.57H1.07a.57.57 0 0 1-.57-.57V5.79Z" fill="url(#ygc3_14)"/><path d="M1.07 2.17h15.86a.57.57 0 0 1 .57.57v3.05H.5V2.73a.57.57 0 0 1 .57-.56Z" fill="#767676"/><circle cx="12.82" cy="10.19" r="1.38" fill="#f2f2f2"/><circle cx="9.06" cy="10.19" r="1.38" fill="#f2f2f2"/><circle cx="5.18" cy="10.19" r="1.38" fill="#f2f2f2"/><rect x="2.79" y="3.25" width="12.43" height="1.46" rx=".28" fill="#f2f2f2"/></g></svg>
        </g></g><g transform="translate(125.83333333333334 570)"><g transform="scale(2.78)">
            <svg svgBox="0 0 18 18" fill="msportalfx-svg-placeholder" role="presentation" focusable="false"><g><title/><defs><linearGradient id="ygc3_15" x1="9.01" y1=".75" x2="9.01" y2="17.25" gradientUnits="userSpaceOnUse"><stop offset="0" stop-color="#5ea0ef"/><stop offset=".18" stop-color="#559cec"/><stop offset=".47" stop-color="#3c91e5"/><stop offset=".84" stop-color="#1380da"/><stop offset="1" stop-color="#0078d4"/></linearGradient></defs><title>Icon-networking-67</title><path d="M16.36 8.4c0 4.84-5.85 8.74-7.12 9.53a.46.46 0 0 1-.48 0c-1.27-.79-7.12-4.69-7.12-9.53V2.58a.46.46 0 0 1 .45-.46C6.64 2 5.59 0 9 0s2.36 2 6.91 2.12a.46.46 0 0 1 .45.46Z" fill="#0078d4"/><path d="M15.75 8.45c0 4.44-5.36 8-6.53 8.74a.43.43 0 0 1-.44 0c-1.17-.72-6.53-4.3-6.53-8.74V3.11a.42.42 0 0 1 .41-.42C6.83 2.58 5.87.75 9 .75s2.17 1.83 6.34 1.94a.42.42 0 0 1 .41.42Z" fill="#6bb9f2"/><path d="M9 9V.75c3.13 0 2.17 1.83 6.34 1.94a.43.43 0 0 1 .41.43v5.34a4.89 4.89 0 0 1 0 .54Zm0 0H2.28c.4 4.18 5.38 7.5 6.5 8.19a.39.39 0 0 0 .18.06H9Z" fill="url(#ygc3_15)"/><path d="M2.66 2.69C6.83 2.58 5.87.75 9 .75V9H2.28a4.89 4.89 0 0 1 0-.54V3.12a.43.43 0 0 1 .38-.43ZM15.72 9H9v8.25a.39.39 0 0 0 .18-.06c1.16-.69 6.14-4.01 6.54-8.19Z" fill="#50e6ff"/></g></svg>
        </g></g><g transform="translate(314.1666666666667 180)"><g transform="scale(2.78)">
            <svg svgBox="0 0 18 18" fill="msportalfx-svg-placeholder" role="presentation" focusable="false"><g><title/><defs><linearGradient id="ygc3_16" x1="9.01" y1="16.5" x2="9.01" y2="1.5" gradientUnits="userSpaceOnUse"><stop offset="0" stop-color="#5e9641"/><stop offset=".34" stop-color="#6baa42"/><stop offset=".67" stop-color="#73b743"/><stop offset="1" stop-color="#76bb43"/></linearGradient></defs><title>Icon-networking-80</title><path d="M15.89 2.91h1.27a.34.34 0 0 1 .34.34v3.5a.34.34 0 0 1-.34.34h-1.27V2.91Zm0 6.09h1.27a.34.34 0 0 1 .34.34v5.86a.34.34 0 0 1-.34.34h-1.27V9Z" fill="#ffca00"/><rect x="2.13" y="1.5" width="13.76" height="15" rx=".69" fill="url(#ygc3_16)"/><path d="M5.9 12.9h-.71a.2.2 0 0 1-.19-.21V4.34a.19.19 0 0 1 .19-.2h1.93a.19.19 0 0 1 .19.2.2.2 0 0 1-.19.21H5.38v7.93h.52a.2.2 0 0 1 .19.21.21.21 0 0 1-.19.21Z" fill="#b4ec36"/><path d="M6 13.92H4.4a.2.2 0 0 1-.19-.21L4.08 3.38a.2.2 0 0 1 .06-.15.16.16 0 0 1 .13-.06h2.85v.41H4.47l.12 9.92H6Zm6-.92h-1.59a.19.19 0 0 1-.14-.07.18.18 0 0 1-.06-.14V7.9a.19.19 0 0 1 .19-.2h.91V5.45h.38v2.44a.2.2 0 0 1-.18.21h-.91v4.42H12Z" fill="#b4ec36"/><rect x="7.07" y="2.29" width="6.14" height="3.11" rx=".26" fill="#365615"/><rect x="5.86" y="12.69" width="4.9" height="1.09" rx=".26" transform="rotate(90 8.305 13.235)" fill="#365615"/><rect x="3.99" y="12.71" width="4.9" height="1.09" rx=".26" transform="rotate(90 6.44 13.26)" fill="#365615"/><rect x="9.98" y="12.71" width="4.9" height="1.09" rx=".26" transform="rotate(90 12.425 13.255)" fill="#f2f2f2"/><ellipse cx="8.11" cy="8.06" rx="1.04" ry="1.12" fill="#f2f2f2"/><path d="M2.11 12.25H.84a.34.34 0 0 1-.34-.3V6.09a.34.34 0 0 1 .34-.34h1.27v6.5Z" fill="#3b3b3b"/></g></svg>
        </g></g><g transform="translate(164.16666666666666 180)"><g transform="scale(2.78)">
            <svg svgBox="0 0 18 18" fill="msportalfx-svg-placeholder" role="presentation" focusable="false"><g><title/><defs><linearGradient id="ygc3_17" x1="9.01" y1=".75" x2="9.01" y2="17.25" gradientUnits="userSpaceOnUse"><stop offset="0" stop-color="#5ea0ef"/><stop offset=".18" stop-color="#559cec"/><stop offset=".47" stop-color="#3c91e5"/><stop offset=".84" stop-color="#1380da"/><stop offset="1" stop-color="#0078d4"/></linearGradient></defs><title>Icon-networking-67</title><path d="M16.36 8.4c0 4.84-5.85 8.74-7.12 9.53a.46.46 0 0 1-.48 0c-1.27-.79-7.12-4.69-7.12-9.53V2.58a.46.46 0 0 1 .45-.46C6.64 2 5.59 0 9 0s2.36 2 6.91 2.12a.46.46 0 0 1 .45.46Z" fill="#0078d4"/><path d="M15.75 8.45c0 4.44-5.36 8-6.53 8.74a.43.43 0 0 1-.44 0c-1.17-.72-6.53-4.3-6.53-8.74V3.11a.42.42 0 0 1 .41-.42C6.83 2.58 5.87.75 9 .75s2.17 1.83 6.34 1.94a.42.42 0 0 1 .41.42Z" fill="#6bb9f2"/><path d="M9 9V.75c3.13 0 2.17 1.83 6.34 1.94a.43.43 0 0 1 .41.43v5.34a4.89 4.89 0 0 1 0 .54Zm0 0H2.28c.4 4.18 5.38 7.5 6.5 8.19a.39.39 0 0 0 .18.06H9Z" fill="url(#ygc3_17)"/><path d="M2.66 2.69C6.83 2.58 5.87.75 9 .75V9H2.28a4.89 4.89 0 0 1 0-.54V3.12a.43.43 0 0 1 .38-.43ZM15.72 9H9v8.25a.39.39 0 0 0 .18-.06c1.16-.69 6.14-4.01 6.54-8.19Z" fill="#50e6ff"/></g></svg>
        </g></g><g transform="translate(529.5833333333334 90)"><g transform="scale(2.78)">
            <svg svgBox="0 0 18 18" fill="msportalfx-svg-placeholder" role="presentation" focusable="false"><g><title/><defs><linearGradient id="ygc3_18" x1="9.033" y1="10.305" x2="9.033" y2="7.695" gradientUnits="userSpaceOnUse"><stop offset="0" stop-color="#5e9624"/><stop offset=".241" stop-color="#6fb02a"/><stop offset=".501" stop-color="#7cc52f"/><stop offset=".756" stop-color="#83d232"/><stop offset="1" stop-color="#86d633"/></linearGradient></defs><path d="M9.031 7.7A1.305 1.305 0 1 0 10.338 9a1.305 1.305 0 0 0-1.307-1.3Z" fill="url(#ygc3_18)"/><path d="m6.34 13.375-.626.629a.284.284 0 0 1-.402 0L.673 9.38a.568.568 0 0 1 0-.804l.626-.629 5.04 5.027a.284.284 0 0 1 .002.402Z" fill="#50e6ff"/><path d="m5.62 3.996.627.626a.284.284 0 0 1 0 .402L1.295 9.99l-.626-.624a.568.568 0 0 1 0-.803L5.22 3.999a.284.284 0 0 1 .401 0Z" fill="#1490df"/><path d="m16.702 7.947.627.629a.568.568 0 0 1-.001.803l-4.639 4.626a.284.284 0 0 1-.402 0l-.627-.63a.284.284 0 0 1 .001-.401l5.041-5.027Z" fill="#50e6ff"/><path d="m17.333 9.364-.629.627-4.953-4.967a.284.284 0 0 1 0-.402l.628-.626a.284.284 0 0 1 .402 0l4.552 4.566a.568.568 0 0 1 0 .803Z" fill="#1490df"/></g></svg>
        </g></g><g transform="translate(529.5833333333334 180)"><g transform="scale(2.78)">
            <svg svgBox="0 0 18 18" fill="msportalfx-svg-placeholder" role="presentation" focusable="false"><g><title/><defs><linearGradient id="ygc3_19" x1="9.01" y1=".75" x2="9.01" y2="17.25" gradientUnits="userSpaceOnUse"><stop offset="0" stop-color="#5ea0ef"/><stop offset=".18" stop-color="#559cec"/><stop offset=".47" stop-color="#3c91e5"/><stop offset=".84" stop-color="#1380da"/><stop offset="1" stop-color="#0078d4"/></linearGradient></defs><title>Icon-networking-67</title><path d="M16.36 8.4c0 4.84-5.85 8.74-7.12 9.53a.46.46 0 0 1-.48 0c-1.27-.79-7.12-4.69-7.12-9.53V2.58a.46.46 0 0 1 .45-.46C6.64 2 5.59 0 9 0s2.36 2 6.91 2.12a.46.46 0 0 1 .45.46Z" fill="#0078d4"/><path d="M15.75 8.45c0 4.44-5.36 8-6.53 8.74a.43.43 0 0 1-.44 0c-1.17-.72-6.53-4.3-6.53-8.74V3.11a.42.42 0 0 1 .41-.42C6.83 2.58 5.87.75 9 .75s2.17 1.83 6.34 1.94a.42.42 0 0 1 .41.42Z" fill="#6bb9f2"/><path d="M9 9V.75c3.13 0 2.17 1.83 6.34 1.94a.43.43 0 0 1 .41.43v5.34a4.89 4.89 0 0 1 0 .54Zm0 0H2.28c.4 4.18 5.38 7.5 6.5 8.19a.39.39 0 0 0 .18.06H9Z" fill="url(#ygc3_19)"/><path d="M2.66 2.69C6.83 2.58 5.87.75 9 .75V9H2.28a4.89 4.89 0 0 1 0-.54V3.12a.43.43 0 0 1 .38-.43ZM15.72 9H9v8.25a.39.39 0 0 0 .18-.06c1.16-.69 6.14-4.01 6.54-8.19Z" fill="#50e6ff"/></g></svg>
        </g></g><g transform="translate(865 90)"><g transform="scale(2.78)">
            <svg svgBox="0 0 18 18" fill="msportalfx-svg-placeholder" role="presentation" focusable="false"><g><title/><defs><linearGradient id="ygc3_20" x1="9.033" y1="10.305" x2="9.033" y2="7.695" gradientUnits="userSpaceOnUse"><stop offset="0" stop-color="#5e9624"/><stop offset=".241" stop-color="#6fb02a"/><stop offset=".501" stop-color="#7cc52f"/><stop offset=".756" stop-color="#83d232"/><stop offset="1" stop-color="#86d633"/></linearGradient></defs><path d="M9.031 7.7A1.305 1.305 0 1 0 10.338 9a1.305 1.305 0 0 0-1.307-1.3Z" fill="url(#ygc3_20)"/><path d="m6.34 13.375-.626.629a.284.284 0 0 1-.402 0L.673 9.38a.568.568 0 0 1 0-.804l.626-.629 5.04 5.027a.284.284 0 0 1 .002.402Z" fill="#50e6ff"/><path d="m5.62 3.996.627.626a.284.284 0 0 1 0 .402L1.295 9.99l-.626-.624a.568.568 0 0 1 0-.803L5.22 3.999a.284.284 0 0 1 .401 0Z" fill="#1490df"/><path d="m16.702 7.947.627.629a.568.568 0 0 1-.001.803l-4.639 4.626a.284.284 0 0 1-.402 0l-.627-.63a.284.284 0 0 1 .001-.401l5.041-5.027Z" fill="#50e6ff"/><path d="m17.333 9.364-.629.627-4.953-4.967a.284.284 0 0 1 0-.402l.628-.626a.284.284 0 0 1 .402 0l4.552 4.566a.568.568 0 0 1 0 .803Z" fill="#1490df"/></g></svg>
        </g></g><g transform="translate(679.5833333333334 180)"><g transform="scale(2.78)">
            <svg svgBox="0 0 18 18" fill="msportalfx-svg-placeholder" role="presentation" focusable="false"><g><title/><defs><linearGradient id="ygc3_21" x1="9.01" y1="16.5" x2="9.01" y2="1.5" gradientUnits="userSpaceOnUse"><stop offset="0" stop-color="#5e9641"/><stop offset=".34" stop-color="#6baa42"/><stop offset=".67" stop-color="#73b743"/><stop offset="1" stop-color="#76bb43"/></linearGradient></defs><title>Icon-networking-80</title><path d="M15.89 2.91h1.27a.34.34 0 0 1 .34.34v3.5a.34.34 0 0 1-.34.34h-1.27V2.91Zm0 6.09h1.27a.34.34 0 0 1 .34.34v5.86a.34.34 0 0 1-.34.34h-1.27V9Z" fill="#ffca00"/><rect x="2.13" y="1.5" width="13.76" height="15" rx=".69" fill="url(#ygc3_21)"/><path d="M5.9 12.9h-.71a.2.2 0 0 1-.19-.21V4.34a.19.19 0 0 1 .19-.2h1.93a.19.19 0 0 1 .19.2.2.2 0 0 1-.19.21H5.38v7.93h.52a.2.2 0 0 1 .19.21.21.21 0 0 1-.19.21Z" fill="#b4ec36"/><path d="M6 13.92H4.4a.2.2 0 0 1-.19-.21L4.08 3.38a.2.2 0 0 1 .06-.15.16.16 0 0 1 .13-.06h2.85v.41H4.47l.12 9.92H6Zm6-.92h-1.59a.19.19 0 0 1-.14-.07.18.18 0 0 1-.06-.14V7.9a.19.19 0 0 1 .19-.2h.91V5.45h.38v2.44a.2.2 0 0 1-.18.21h-.91v4.42H12Z" fill="#b4ec36"/><rect x="7.07" y="2.29" width="6.14" height="3.11" rx=".26" fill="#365615"/><rect x="5.86" y="12.69" width="4.9" height="1.09" rx=".26" transform="rotate(90 8.305 13.235)" fill="#365615"/><rect x="3.99" y="12.71" width="4.9" height="1.09" rx=".26" transform="rotate(90 6.44 13.26)" fill="#365615"/><rect x="9.98" y="12.71" width="4.9" height="1.09" rx=".26" transform="rotate(90 12.425 13.255)" fill="#f2f2f2"/><ellipse cx="8.11" cy="8.06" rx="1.04" ry="1.12" fill="#f2f2f2"/><path d="M2.11 12.25H.84a.34.34 0 0 1-.34-.3V6.09a.34.34 0 0 1 .34-.34h1.27v6.5Z" fill="#3b3b3b"/></g></svg>
        </g></g><g transform="translate(385.8333333333333 280)"><g transform="scale(2.78)">
            <svg svgBox="0 0 18 18" fill="msportalfx-svg-placeholder" role="presentation" focusable="false"><g><title/><defs><linearGradient id="ygc3_22" x1="8.88" y1="12.21" x2="8.88" y2=".21" gradientUnits="userSpaceOnUse"><stop offset="0" stop-color="#0078d4"/><stop offset=".82" stop-color="#5ea0ef"/></linearGradient><linearGradient id="ygc3_23" x1="8.88" y1="16.84" x2="8.88" y2="12.21" gradientUnits="userSpaceOnUse"><stop offset=".15" stop-color="#ccc"/><stop offset="1" stop-color="#707070"/></linearGradient></defs><title>Icon-compute-21</title><rect x="-.12" y=".21" width="18" height="12" rx=".6" fill="url(#ygc3_22)"/><path fill="#50e6ff" d="M11.88 4.46v3.49l-3 1.76v-3.5l3-1.75z"/><path fill="#c3f1ff" d="m11.88 4.46-3 1.76-3-1.76 3-1.75 3 1.75z"/><path fill="#9cebff" d="M8.88 6.22v3.49l-3-1.76V4.46l3 1.76z"/><path fill="#c3f1ff" d="m5.88 7.95 3-1.74v3.5l-3-1.76z"/><path fill="#9cebff" d="m11.88 7.95-3-1.74v3.5l3-1.76z"/><path d="M12.49 15.84c-1.78-.28-1.85-1.56-1.85-3.63H7.11c0 2.07-.06 3.35-1.84 3.63a1 1 0 0 0-.89 1h9a1 1 0 0 0-.89-1Z" fill="url(#ygc3_23)"/></g></svg>
        </g></g><g transform="translate(835.8333333333334 280)"><g transform="scale(2.78)">
            <svg svgBox="0 0 18 18" fill="msportalfx-svg-placeholder" role="presentation" focusable="false"><g><title/><defs><linearGradient id="ygc3_24" x1="10.31" y1="12.7" x2="10.31" y2="6.83" gradientUnits="userSpaceOnUse"><stop offset="0" stop-color="#0078d4"/><stop offset=".82" stop-color="#5ea0ef"/></linearGradient><linearGradient id="ygc3_25" x1="10.31" y1="14.97" x2="10.31" y2="12.7" gradientUnits="userSpaceOnUse"><stop offset=".15" stop-color="#ccc"/><stop offset="1" stop-color="#707070"/></linearGradient></defs><title>Icon-compute-25</title><path fill="#0078d4" d="M2.12.5h1.97v.57H2.12zm14.51.57h.32v.31h.55V.5h-.87v.57zM1.41 16.89h-.28v-.32H.5v.93h.91v-.61zm15.54-.29v.29h-.32v.61h.87v-.9h-.55zM1.13 1.36v-.29h.28V.5H.5v.86h.63z"/><rect x="3.37" y="3.55" width="8.79" height="5.88" rx=".29" fill="#0078d4"/><path fill="#50e6ff" d="M9.23 5.64v1.71l-1.46.86V6.49l1.46-.85z"/><path fill="#c3f1ff" d="m9.23 5.64-1.46.86-1.47-.86 1.47-.86 1.46.86z"/><path fill="#9cebff" d="M7.77 6.5v1.71L6.3 7.35V5.64l1.47.86z"/><rect x="5.91" y="6.83" width="8.79" height="5.88" rx=".29" fill="url(#ygc3_24)"/><path fill="#50e6ff" d="M11.77 8.91v1.71l-1.46.86V9.77l1.46-.86z"/><path fill="#c3f1ff" d="m11.77 8.91-1.46.86-1.47-.86 1.47-.86 1.46.86z"/><path fill="#9cebff" d="M10.31 9.77v1.71l-1.47-.86V8.91l1.47.86z"/><path fill="#c3f1ff" d="m8.84 10.62 1.47-.85v1.71l-1.47-.86z"/><path fill="#9cebff" d="m11.77 10.62-1.46-.85v1.71l1.46-.86z"/><path d="M12.07 14.48c-.87-.14-.9-.77-.9-1.78H9.44c0 1 0 1.64-.9 1.78a.51.51 0 0 0-.43.49h4.4a.51.51 0 0 0-.44-.49Z" fill="url(#ygc3_25)"/><path fill="#0078d4" d="M5.07.5h1.97v.57H5.07zm2.94 0h1.97v.57H8.01zm2.95 0h1.97v.57h-1.97zm2.95 0h1.97v.57h-1.97zM2.14 16.89h1.97v.57H2.14zm2.94 0h1.97v.57H5.08zm2.95 0H10v.57H8.03zm2.95 0h1.97v.57h-1.97zm2.94 0h1.97v.57h-1.97zm3.01-14.84h.57v1.97h-.57zm0 2.94h.57v1.97h-.57zm0 2.95h.57v1.97h-.57zm0 2.94h.57v1.97h-.57zm0 2.95h.57v1.97h-.57zM.5 2.03h.57V4H.5zm0 2.95h.57v1.97H.5zm0 2.94h.57v1.97H.5zm0 2.95h.57v1.97H.5zm0 2.94h.57v1.97H.5z"/></g></svg>
        </g></g><g transform="translate(835.8333333333334 390)"><g transform="scale(2.78)">
            <svg svgBox="0 0 18 18" fill="msportalfx-svg-placeholder" role="presentation" focusable="false"><g><title/><defs><linearGradient id="ygc3_26" x1="9" y1="19.85" x2="9" y2="-1.02" gradientUnits="userSpaceOnUse"><stop offset="0" stop-color="#5e9624"/><stop offset=".02" stop-color="#5f9724"/><stop offset="1" stop-color="#76bc2d"/></linearGradient></defs><title>Icon-networking-62</title><path d="M.18 8.57 8.57.18a.6.6 0 0 1 .86 0l8.39 8.39a.6.6 0 0 1 0 .86l-8.4 8.4a.6.6 0 0 1-.84 0l-8.4-8.4a.6.6 0 0 1 0-.86Z" fill="url(#ygc3_26)"/><path d="M11.2 4 9.08 1.89a.12.12 0 0 0-.16 0L6.8 4a.1.1 0 0 0 .08.18h1.24a.11.11 0 0 1 .11.11v2a.11.11 0 0 0 .11.11h1.32a.11.11 0 0 0 .11-.11v-2a.11.11 0 0 1 .11-.11h1.24A.1.1 0 0 0 11.2 4ZM4 6.61 1.9 8.74a.11.11 0 0 0 0 .15L4 11a.11.11 0 0 0 .19-.08V9.69a.11.11 0 0 1 .11-.11h2a.1.1 0 0 0 .1-.11V8.15A.1.1 0 0 0 6.33 8h-2a.1.1 0 0 1-.11-.1V6.69A.11.11 0 0 0 4 6.61ZM14.08 11l2.13-2.12a.11.11 0 0 0 0-.15l-2.13-2.12a.11.11 0 0 0-.18.08v1.25a.1.1 0 0 1-.11.1h-2a.1.1 0 0 0-.1.11v1.32a.1.1 0 0 0 .1.11h2a.11.11 0 0 1 .11.11v1.24a.11.11 0 0 0 .18.07Z" fill="#b4ec36"/><path d="M11.79 9a2.79 2.79 0 1 0-3.54 2.67v.95a1.71 1.71 0 1 0 1.57 0v-1A2.77 2.77 0 0 0 11.79 9Z" fill="#fff"/><circle cx="9.01" cy="8.99" r="1.62" fill="#5ea0ef"/></g></svg>
        </g></g><g transform="translate(698.3333333333334 480)"><g transform="scale(1.0)">
            <svg svgBox="0 0 50 50" fill="msportalfx-svg-placeholder" role="presentation" focusable="false"><g><title/><path d="M27.1 21.8h-4.2L19.7 50h10.6z" fill="#59b4d9"/><path d="M40.3 22.5C40.3 14 33.5 7.1 25 7.1S9.7 14 9.7 22.5c0 5.6 3 10.5 7.6 13.2.5-.8.9-1.6 1.3-2.3-3.7-2.2-6.2-6.2-6.2-10.9 0-7 5.7-12.7 12.7-12.7 7 0 12.7 5.7 12.7 12.7 0 4.6-2.5 8.7-6.2 10.9.4.7.9 1.5 1.3 2.3 4.4-2.7 7.4-7.6 7.4-13.2" opacity=".5" fill="#3e3e3e"/><path d="M13.7 41.9c.4-.8.9-1.6 1.3-2.4-5.9-3.4-9.8-9.8-9.8-17.1C5.2 11.6 14.1 2.7 25 2.7s19.8 8.9 19.8 19.8c0 7.3-4 13.6-9.8 17.1.4.8.9 1.6 1.3 2.4 6.7-3.9 11.2-11.1 11.2-19.4C47.5 10.1 37.4 0 25 0S2.5 10.1 2.5 22.5c0 8.2 4.6 15.5 11.2 19.4" opacity=".2" fill="#3e3e3e"/><circle cx="25" cy="22.6" r="6.8" fill="#0072c6"/></g></svg>
        </g></g><g transform="translate(848.3333333333334 480)"><g transform="scale(2.78)">
            <svg svgBox="0 0 18 18" fill="msportalfx-svg-placeholder" role="presentation" focusable="false"><g><title/><defs><linearGradient id="ygc3_27" x1="9" y1="15.83" x2="9" y2="5.79" gradientUnits="userSpaceOnUse"><stop offset="0" stop-color="#32bedd"/><stop offset=".18" stop-color="#32caea"/><stop offset=".41" stop-color="#32d2f2"/><stop offset=".78" stop-color="#32d4f5"/></linearGradient></defs><title>Icon-networking-69</title><path d="M.5 5.79h17v9.48a.57.57 0 0 1-.57.57H1.07a.57.57 0 0 1-.57-.57V5.79Z" fill="url(#ygc3_27)"/><path d="M1.07 2.17h15.86a.57.57 0 0 1 .57.57v3.05H.5V2.73a.57.57 0 0 1 .57-.56Z" fill="#767676"/><circle cx="12.82" cy="10.19" r="1.38" fill="#f2f2f2"/><circle cx="9.06" cy="10.19" r="1.38" fill="#f2f2f2"/><circle cx="5.18" cy="10.19" r="1.38" fill="#f2f2f2"/><rect x="2.79" y="3.25" width="12.43" height="1.46" rx=".28" fill="#f2f2f2"/></g></svg>
        </g></g><g transform="translate(535.8333333333334 280)"><g transform="scale(2.78)">
            <svg svgBox="0 0 18 18" fill="msportalfx-svg-placeholder" role="presentation" focusable="false"><g><title/><defs><linearGradient id="ygc3_28" x1="9.01" y1=".75" x2="9.01" y2="17.25" gradientUnits="userSpaceOnUse"><stop offset="0" stop-color="#5ea0ef"/><stop offset=".18" stop-color="#559cec"/><stop offset=".47" stop-color="#3c91e5"/><stop offset=".84" stop-color="#1380da"/><stop offset="1" stop-color="#0078d4"/></linearGradient></defs><title>Icon-networking-67</title><path d="M16.36 8.4c0 4.84-5.85 8.74-7.12 9.53a.46.46 0 0 1-.48 0c-1.27-.79-7.12-4.69-7.12-9.53V2.58a.46.46 0 0 1 .45-.46C6.64 2 5.59 0 9 0s2.36 2 6.91 2.12a.46.46 0 0 1 .45.46Z" fill="#0078d4"/><path d="M15.75 8.45c0 4.44-5.36 8-6.53 8.74a.43.43 0 0 1-.44 0c-1.17-.72-6.53-4.3-6.53-8.74V3.11a.42.42 0 0 1 .41-.42C6.83 2.58 5.87.75 9 .75s2.17 1.83 6.34 1.94a.42.42 0 0 1 .41.42Z" fill="#6bb9f2"/><path d="M9 9V.75c3.13 0 2.17 1.83 6.34 1.94a.43.43 0 0 1 .41.43v5.34a4.89 4.89 0 0 1 0 .54Zm0 0H2.28c.4 4.18 5.38 7.5 6.5 8.19a.39.39 0 0 0 .18.06H9Z" fill="url(#ygc3_28)"/><path d="M2.66 2.69C6.83 2.58 5.87.75 9 .75V9H2.28a4.89 4.89 0 0 1 0-.54V3.12a.43.43 0 0 1 .38-.43ZM15.72 9H9v8.25a.39.39 0 0 0 .18-.06c1.16-.69 6.14-4.01 6.54-8.19Z" fill="#50e6ff"/></g></svg>
        </g></g><g transform="translate(685.8333333333334 280)"><g transform="scale(2.78)">
            <svg svgBox="0 0 18 18" fill="msportalfx-svg-placeholder" role="presentation" focusable="false"><g><title/><defs><linearGradient id="ygc3_29" x1="9" y1="15.83" x2="9" y2="5.79" gradientUnits="userSpaceOnUse"><stop offset="0" stop-color="#32bedd"/><stop offset=".18" stop-color="#32caea"/><stop offset=".41" stop-color="#32d2f2"/><stop offset=".78" stop-color="#32d4f5"/></linearGradient></defs><title>Icon-networking-69</title><path d="M.5 5.79h17v9.48a.57.57 0 0 1-.57.57H1.07a.57.57 0 0 1-.57-.57V5.79Z" fill="url(#ygc3_29)"/><path d="M1.07 2.17h15.86a.57.57 0 0 1 .57.57v3.05H.5V2.73a.57.57 0 0 1 .57-.56Z" fill="#767676"/><circle cx="12.82" cy="10.19" r="1.38" fill="#f2f2f2"/><circle cx="9.06" cy="10.19" r="1.38" fill="#f2f2f2"/><circle cx="5.18" cy="10.19" r="1.38" fill="#f2f2f2"/><rect x="2.79" y="3.25" width="12.43" height="1.46" rx=".28" fill="#f2f2f2"/></g></svg>
        </g></g><g transform="translate(865 180)"><g transform="scale(2.78)">
            <svg svgBox="0 0 18 18" fill="msportalfx-svg-placeholder" role="presentation" focusable="false"><g><title/><defs><linearGradient id="ygc3_30" x1="9.01" y1="16.5" x2="9.01" y2="1.5" gradientUnits="userSpaceOnUse"><stop offset="0" stop-color="#5e9641"/><stop offset=".34" stop-color="#6baa42"/><stop offset=".67" stop-color="#73b743"/><stop offset="1" stop-color="#76bb43"/></linearGradient></defs><title>Icon-networking-80</title><path d="M15.89 2.91h1.27a.34.34 0 0 1 .34.34v3.5a.34.34 0 0 1-.34.34h-1.27V2.91Zm0 6.09h1.27a.34.34 0 0 1 .34.34v5.86a.34.34 0 0 1-.34.34h-1.27V9Z" fill="#ffca00"/><rect x="2.13" y="1.5" width="13.76" height="15" rx=".69" fill="url(#ygc3_30)"/><path d="M5.9 12.9h-.71a.2.2 0 0 1-.19-.21V4.34a.19.19 0 0 1 .19-.2h1.93a.19.19 0 0 1 .19.2.2.2 0 0 1-.19.21H5.38v7.93h.52a.2.2 0 0 1 .19.21.21.21 0 0 1-.19.21Z" fill="#b4ec36"/><path d="M6 13.92H4.4a.2.2 0 0 1-.19-.21L4.08 3.38a.2.2 0 0 1 .06-.15.16.16 0 0 1 .13-.06h2.85v.41H4.47l.12 9.92H6Zm6-.92h-1.59a.19.19 0 0 1-.14-.07.18.18 0 0 1-.06-.14V7.9a.19.19 0 0 1 .19-.2h.91V5.45h.38v2.44a.2.2 0 0 1-.18.21h-.91v4.42H12Z" fill="#b4ec36"/><rect x="7.07" y="2.29" width="6.14" height="3.11" rx=".26" fill="#365615"/><rect x="5.86" y="12.69" width="4.9" height="1.09" rx=".26" transform="rotate(90 8.305 13.235)" fill="#365615"/><rect x="3.99" y="12.71" width="4.9" height="1.09" rx=".26" transform="rotate(90 6.44 13.26)" fill="#365615"/><rect x="9.98" y="12.71" width="4.9" height="1.09" rx=".26" transform="rotate(90 12.425 13.255)" fill="#f2f2f2"/><ellipse cx="8.11" cy="8.06" rx="1.04" ry="1.12" fill="#f2f2f2"/><path d="M2.11 12.25H.84a.34.34 0 0 1-.34-.3V6.09a.34.34 0 0 1 .34-.34h1.27v6.5Z" fill="#3b3b3b"/></g></svg>
        </g></g><g transform="translate(985.8333333333334 280)"><g transform="scale(2.78)">
            <svg svgBox="0 0 18 18" fill="msportalfx-svg-placeholder" role="presentation" focusable="false"><g><title/><defs><linearGradient id="ygc3_31" x1="8.88" y1="12.21" x2="8.88" y2=".21" gradientUnits="userSpaceOnUse"><stop offset="0" stop-color="#0078d4"/><stop offset=".82" stop-color="#5ea0ef"/></linearGradient><linearGradient id="ygc3_32" x1="8.88" y1="16.84" x2="8.88" y2="12.21" gradientUnits="userSpaceOnUse"><stop offset=".15" stop-color="#ccc"/><stop offset="1" stop-color="#707070"/></linearGradient></defs><title>Icon-compute-21</title><rect x="-.12" y=".21" width="18" height="12" rx=".6" fill="url(#ygc3_31)"/><path fill="#50e6ff" d="M11.88 4.46v3.49l-3 1.76v-3.5l3-1.75z"/><path fill="#c3f1ff" d="m11.88 4.46-3 1.76-3-1.76 3-1.75 3 1.75z"/><path fill="#9cebff" d="M8.88 6.22v3.49l-3-1.76V4.46l3 1.76z"/><path fill="#c3f1ff" d="m5.88 7.95 3-1.74v3.5l-3-1.76z"/><path fill="#9cebff" d="m11.88 7.95-3-1.74v3.5l3-1.76z"/><path d="M12.49 15.84c-1.78-.28-1.85-1.56-1.85-3.63H7.11c0 2.07-.06 3.35-1.84 3.63a1 1 0 0 0-.89 1h9a1 1 0 0 0-.89-1Z" fill="url(#ygc3_32)"/></g></svg>
        </g></g><g transform="translate(1135.8333333333333 280)"><g transform="scale(2.78)">
            <svg svgBox="0 0 18 18" fill="msportalfx-svg-placeholder" role="presentation" focusable="false"><g><title/><defs><linearGradient id="ygc3_33" x1="9" y1="15.83" x2="9" y2="5.79" gradientUnits="userSpaceOnUse"><stop offset="0" stop-color="#32bedd"/><stop offset=".18" stop-color="#32caea"/><stop offset=".41" stop-color="#32d2f2"/><stop offset=".78" stop-color="#32d4f5"/></linearGradient></defs><title>Icon-networking-69</title><path d="M.5 5.79h17v9.48a.57.57 0 0 1-.57.57H1.07a.57.57 0 0 1-.57-.57V5.79Z" fill="url(#ygc3_33)"/><path d="M1.07 2.17h15.86a.57.57 0 0 1 .57.57v3.05H.5V2.73a.57.57 0 0 1 .57-.56Z" fill="#767676"/><circle cx="12.82" cy="10.19" r="1.38" fill="#f2f2f2"/><circle cx="9.06" cy="10.19" r="1.38" fill="#f2f2f2"/><circle cx="5.18" cy="10.19" r="1.38" fill="#f2f2f2"/><rect x="2.79" y="3.25" width="12.43" height="1.46" rx=".28" fill="#f2f2f2"/></g></svg>
        </g></g><g transform="translate(1015 180)"><g transform="scale(2.78)">
            <svg svgBox="0 0 18 18" fill="msportalfx-svg-placeholder" role="presentation" focusable="false"><g><title/><defs><linearGradient id="ygc3_34" x1="9.01" y1=".75" x2="9.01" y2="17.25" gradientUnits="userSpaceOnUse"><stop offset="0" stop-color="#5ea0ef"/><stop offset=".18" stop-color="#559cec"/><stop offset=".47" stop-color="#3c91e5"/><stop offset=".84" stop-color="#1380da"/><stop offset="1" stop-color="#0078d4"/></linearGradient></defs><title>Icon-networking-67</title><path d="M16.36 8.4c0 4.84-5.85 8.74-7.12 9.53a.46.46 0 0 1-.48 0c-1.27-.79-7.12-4.69-7.12-9.53V2.58a.46.46 0 0 1 .45-.46C6.64 2 5.59 0 9 0s2.36 2 6.91 2.12a.46.46 0 0 1 .45.46Z" fill="#0078d4"/><path d="M15.75 8.45c0 4.44-5.36 8-6.53 8.74a.43.43 0 0 1-.44 0c-1.17-.72-6.53-4.3-6.53-8.74V3.11a.42.42 0 0 1 .41-.42C6.83 2.58 5.87.75 9 .75s2.17 1.83 6.34 1.94a.42.42 0 0 1 .41.42Z" fill="#6bb9f2"/><path d="M9 9V.75c3.13 0 2.17 1.83 6.34 1.94a.43.43 0 0 1 .41.43v5.34a4.89 4.89 0 0 1 0 .54Zm0 0H2.28c.4 4.18 5.38 7.5 6.5 8.19a.39.39 0 0 0 .18.06H9Z" fill="url(#ygc3_34)"/><path d="M2.66 2.69C6.83 2.58 5.87.75 9 .75V9H2.28a4.89 4.89 0 0 1 0-.54V3.12a.43.43 0 0 1 .38-.43ZM15.72 9H9v8.25a.39.39 0 0 0 .18-.06c1.16-.69 6.14-4.01 6.54-8.19Z" fill="#50e6ff"/></g></svg>
        </g></g><g transform="translate(517.0900008138021 46.43333339691162)"><text font-family="Arial" font-size="12px" font-style="normal" font-weight="normal" text-anchor="start" fill="rgb(0,0,0)" fill-opacity="1" dy="1em" transform="translate(0 0)">kpmg-tst-vnet</text></g><g transform="translate(167.88666712855434 136.43333339691162)"><text font-family="Arial" font-size="12px" font-style="normal" font-weight="normal" text-anchor="start" fill="rgb(0,0,0)" fill-opacity="1" dy="1em" transform="translate(0 0)">app-tier</text></g><g transform="translate(-3.899999065227341 226.43333339691162)"><text font-family="Arial" font-size="12px" font-style="normal" font-weight="normal" text-anchor="start" fill="rgb(0,0,0)" fill-opacity="1" dy="1em" transform="translate(0 0)">myvms8918Nic</text></g><g transform="translate(31.453333410314613 436.4333333969116)"><text font-family="Arial" font-size="12px" font-style="normal" font-weight="normal" text-anchor="start" fill="rgb(0,0,0)" fill-opacity="1" dy="1em" transform="translate(0 0)">1</text></g><g transform="translate(163.77666717254365 326.4333333969116)"><text font-family="Arial" font-size="12px" font-style="normal" font-weight="normal" text-anchor="start" fill="rgb(0,0,0)" fill-opacity="1" dy="1em" transform="translate(0 0)">myvmss</text></g><g transform="translate(339.7866667436479 436.4333333969116)"><text font-family="Arial" font-size="12px" font-style="normal" font-weight="normal" text-anchor="start" fill="rgb(0,0,0)" fill-opacity="1" dy="1em" transform="translate(0 0)">2</text></g><g transform="translate(141.65333445506053 436.4333333969116)"><text font-family="Arial" font-size="12px" font-style="normal" font-weight="normal" text-anchor="start" fill="rgb(0,0,0)" fill-opacity="1" dy="1em" transform="translate(0 0)">myvmssLBBEPool</text></g><g transform="translate(162.42666733750352 526.4333333969116)"><text font-family="Arial" font-size="12px" font-style="normal" font-weight="normal" text-anchor="start" fill="rgb(0,0,0)" fill-opacity="1" dy="1em" transform="translate(0 0)">myvmssLB</text></g><g transform="translate(245.1000012097058 616.4333333969116)"><text font-family="Arial" font-size="12px" font-style="normal" font-weight="normal" text-anchor="start" fill="rgb(0,0,0)" fill-opacity="1" dy="1em" transform="translate(0 0)">loadBalancerFront...</text></g><g transform="translate(97.63333448805251 616.4333333969116)"><text font-family="Arial" font-size="12px" font-style="normal" font-weight="normal" text-anchor="start" fill="rgb(0,0,0)" fill-opacity="1" dy="1em" transform="translate(0 0)">myvmssLBNatPool</text></g><g transform="translate(296.10000093477265 226.43333339691162)"><text font-family="Arial" font-size="12px" font-style="normal" font-weight="normal" text-anchor="start" fill="rgb(0,0,0)" fill-opacity="1" dy="1em" transform="translate(0 0)">myvms8918Nic</text></g><g transform="translate(157.24666735949816 226.43333339691162)"><text font-family="Arial" font-size="12px" font-style="normal" font-weight="normal" text-anchor="start" fill="rgb(0,0,0)" fill-opacity="1" dy="1em" transform="translate(0 0)">app-tst-nsg</text></g><g transform="translate(539.8900003189225 136.43333339691162)"><text font-family="Arial" font-size="12px" font-style="normal" font-weight="normal" text-anchor="start" fill="rgb(0,0,0)" fill-opacity="1" dy="1em" transform="translate(0 0)">client</text></g><g transform="translate(518.6100007808102 226.43333339691162)"><text font-family="Arial" font-size="12px" font-style="normal" font-weight="normal" text-anchor="start" fill="rgb(0,0,0)" fill-opacity="1" dy="1em" transform="translate(0 0)">client-tst-nsg</text></g><g transform="translate(867.2000004948796 136.43333339691162)"><text font-family="Arial" font-size="12px" font-style="normal" font-weight="normal" text-anchor="start" fill="rgb(0,0,0)" fill-opacity="1" dy="1em" transform="translate(0 0)">data-tier</text></g><g transform="translate(647.8366678983672 226.43333339691162)"><text font-family="Arial" font-size="12px" font-style="normal" font-weight="normal" text-anchor="start" fill="rgb(0,0,0)" fill-opacity="1" dy="1em" transform="translate(0 0)">data-tier-vm1478_z1</text></g><g transform="translate(374.35333412514075 326.4333333969116)"><text font-family="Arial" font-size="12px" font-style="normal" font-weight="normal" text-anchor="start" fill="rgb(0,0,0)" fill-opacity="1" dy="1em" transform="translate(0 0)">data-tier-vm1</text></g><g transform="translate(807.6333344880526 326.4333333969116)"><text font-family="Arial" font-size="12px" font-style="normal" font-weight="normal" text-anchor="start" fill="rgb(0,0,0)" fill-opacity="1" dy="1em" transform="translate(0 0)">db-tst-lb-backend...</text></g><g transform="translate(838.033333828213 436.4333333969116)"><text font-family="Arial" font-size="12px" font-style="normal" font-weight="normal" text-anchor="start" fill="rgb(0,0,0)" fill-opacity="1" dy="1em" transform="translate(0 0)">db-tst-lb</text></g><g transform="translate(675.2000010447459 526.4333333969116)"><text font-family="Arial" font-size="12px" font-style="normal" font-weight="normal" text-anchor="start" fill="rgb(0,0,0)" fill-opacity="1" dy="1em" transform="translate(0 0)">db-tst-lb-probe01</text></g><g transform="translate(824.6933343890767 526.4333333969116)"><text font-family="Arial" font-size="12px" font-style="normal" font-weight="normal" text-anchor="start" fill="rgb(0,0,0)" fill-opacity="1" dy="1em" transform="translate(0 0)">db-tst-lb-fronten...</text></g><g transform="translate(511.68666773340726 326.4333333969116)"><text font-family="Arial" font-size="12px" font-style="normal" font-weight="normal" text-anchor="start" fill="rgb(0,0,0)" fill-opacity="1" dy="1em" transform="translate(0 0)">data-tier-vm1-nsg</text></g><g transform="translate(667.26000094577 326.4333333969116)"><text font-family="Arial" font-size="12px" font-style="normal" font-weight="normal" text-anchor="start" fill="rgb(0,0,0)" fill-opacity="1" dy="1em" transform="translate(0 0)">data-tier-vm1-ip</text></g><g transform="translate(833.2533345650338 226.43333339691162)"><text font-family="Arial" font-size="12px" font-style="normal" font-weight="normal" text-anchor="start" fill="rgb(0,0,0)" fill-opacity="1" dy="1em" transform="translate(0 0)">data-tier-vm2848_z2</text></g><g transform="translate(974.3533341251408 326.4333333969116)"><text font-family="Arial" font-size="12px" font-style="normal" font-weight="normal" text-anchor="start" fill="rgb(0,0,0)" fill-opacity="1" dy="1em" transform="translate(0 0)">data-tier-vm2</text></g><g transform="translate(1117.26000094577 326.4333333969116)"><text font-family="Arial" font-size="12px" font-style="normal" font-weight="normal" text-anchor="start" fill="rgb(0,0,0)" fill-opacity="1" dy="1em" transform="translate(0 0)">data-tier-vm2-ip</text></g><g transform="translate(1011.6266672825169 226.43333339691162)"><text font-family="Arial" font-size="12px" font-style="normal" font-weight="normal" text-anchor="start" fill="rgb(0,0,0)" fill-opacity="1" dy="1em" transform="translate(0 0)">db-tst-nsg</text></g></g></svg>